<svg width="62" height="32" viewBox="0 0 62 32" fill="none" xmlns="http://www.w3.org/2000/svg">
<path d="M7.20916 24.72C7.20916 24.93 6.01916 25.035 3.63916 25.035C1.77249 25.0117 0.83916 24.9183 0.83916 24.755V0.919999C0.83916 0.57 1.97083 0.395 4.23416 0.395C6.21749 0.464999 7.20916 0.581665 7.20916 0.744999V24.72ZM11.8803 22.935C10.4336 21.325 9.71029 19.0967 9.71029 16.25C9.71029 13.4033 10.4336 11.175 11.8803 9.565C13.3503 7.955 15.322 7.15 17.7953 7.15C20.2686 7.15 22.2286 7.955 23.6753 9.565C25.122 11.175 25.8453 13.4033 25.8453 16.25C25.8453 19.0967 25.122 21.325 23.6753 22.935C22.2286 24.545 20.2686 25.35 17.7953 25.35C15.322 25.35 13.3503 24.545 11.8803 22.935ZM17.7953 12.995C16.4886 12.995 15.8353 14.0683 15.8353 16.215C15.8353 18.3617 16.4886 19.435 17.7953 19.435C19.1253 19.435 19.7903 18.3617 19.7903 16.215C19.7903 14.0683 19.1253 12.995 17.7953 12.995ZM34.7596 25C32.4963 25 30.7463 24.2767 29.5096 22.83C28.273 21.36 27.6546 19.2017 27.6546 16.355C27.6546 13.485 28.4596 11.245 30.0696 9.635C31.703 8.00167 33.8613 7.185 36.5446 7.185C39.2513 7.185 41.4796 7.78 43.2296 8.97V26.4C43.2296 28.1267 42.5296 29.445 41.1296 30.355C39.7296 31.2883 37.933 31.755 35.7396 31.755C33.5463 31.755 31.5863 31.475 29.8596 30.915C29.6263 30.355 29.5096 29.8533 29.5096 29.41C29.5096 27.9167 29.7546 26.82 30.2446 26.12C31.808 26.7967 33.4763 27.135 35.2496 27.135C36.533 27.135 37.1746 26.68 37.1746 25.77V24.72C36.1713 24.9067 35.3663 25 34.7596 25ZM36.3696 12.89C34.8063 12.89 34.0246 14.0683 34.0246 16.425C34.0246 17.895 34.328 18.8517 34.9346 19.295C35.3313 19.5983 35.728 19.75 36.1246 19.75C36.5213 19.75 36.8713 19.715 37.1746 19.645V12.995C36.8946 12.925 36.6263 12.89 36.3696 12.89ZM47.8715 22.935C46.4248 21.325 45.7015 19.0967 45.7015 16.25C45.7015 13.4033 46.4248 11.175 47.8715 9.565C49.3415 7.955 51.3132 7.15 53.7865 7.15C56.2598 7.15 58.2198 7.955 59.6665 9.565C61.1132 11.175 61.8365 13.4033 61.8365 16.25C61.8365 19.0967 61.1132 21.325 59.6665 22.935C58.2198 24.545 56.2598 25.35 53.7865 25.35C51.3132 25.35 49.3415 24.545 47.8715 22.935ZM53.7865 12.995C52.4798 12.995 51.8265 14.0683 51.8265 16.215C51.8265 18.3617 52.4798 19.435 53.7865 19.435C55.1165 19.435 55.7815 18.3617 55.7815 16.215C55.7815 14.0683 55.1165 12.995 53.7865 12.995Z" fill="#4C48FF"/>
</svg>
